<mxfile host="app.diagrams.net" agent="Mozilla/5.0 (Windows NT 10.0; Win64; x64) AppleWebKit/537.36 (KHTML, like Gecko) Chrome/133.0.0.0 Safari/537.36" version="26.0.16">
  <diagram id="i2U2fAWp4BPeJd0J6tEC" name="Страница 1">
    <mxGraphModel dx="1434" dy="780" grid="1" gridSize="10" guides="1" tooltips="1" connect="1" arrows="1" fold="1" page="1" pageScale="1" pageWidth="1169" pageHeight="1654" math="0" shadow="0">
      <root>
        <mxCell id="0" />
        <mxCell id="1" parent="0" />
        <mxCell id="s9wY2HrR1crQIRi6QdSR-5" value="" style="sketch=0;outlineConnect=0;fontColor=#232F3E;gradientColor=none;fillColor=#232F3D;strokeColor=none;dashed=0;verticalLabelPosition=bottom;verticalAlign=top;align=center;html=1;fontSize=12;fontStyle=0;aspect=fixed;pointerEvents=1;shape=mxgraph.aws4.users;" vertex="1" parent="1">
          <mxGeometry x="290" y="1080" width="78" height="78" as="geometry" />
        </mxCell>
        <mxCell id="s9wY2HrR1crQIRi6QdSR-6" value="" style="sketch=0;outlineConnect=0;fontColor=#232F3E;gradientColor=none;fillColor=#232F3D;strokeColor=none;dashed=0;verticalLabelPosition=bottom;verticalAlign=top;align=center;html=1;fontSize=12;fontStyle=0;aspect=fixed;pointerEvents=1;shape=mxgraph.aws4.servers;" vertex="1" parent="1">
          <mxGeometry x="470" y="1080" width="78" height="78" as="geometry" />
        </mxCell>
        <mxCell id="s9wY2HrR1crQIRi6QdSR-9" value="" style="sketch=0;pointerEvents=1;shadow=0;dashed=0;html=1;strokeColor=none;fillColor=#000000;aspect=fixed;labelPosition=center;verticalLabelPosition=bottom;verticalAlign=top;align=center;outlineConnect=0;shape=mxgraph.vvd.business_continuity_data_protection;" vertex="1" parent="1">
          <mxGeometry x="660" y="1078" width="93.02" height="80" as="geometry" />
        </mxCell>
        <mxCell id="s9wY2HrR1crQIRi6QdSR-13" value="" style="sketch=0;outlineConnect=0;fontColor=#232F3E;gradientColor=none;fillColor=#232F3D;strokeColor=none;dashed=0;verticalLabelPosition=bottom;verticalAlign=top;align=center;html=1;fontSize=12;fontStyle=0;aspect=fixed;pointerEvents=1;shape=mxgraph.aws4.forums;" vertex="1" parent="1">
          <mxGeometry x="830" y="990" width="78" height="76" as="geometry" />
        </mxCell>
        <mxCell id="s9wY2HrR1crQIRi6QdSR-15" value="&lt;font style=&quot;font-size: 16px;&quot;&gt;&lt;b&gt;Внешние ресурсы&lt;/b&gt;&lt;/font&gt;" style="rounded=1;whiteSpace=wrap;html=1;strokeWidth=3;" vertex="1" parent="1">
          <mxGeometry x="1010" y="998" width="120" height="60" as="geometry" />
        </mxCell>
        <mxCell id="s9wY2HrR1crQIRi6QdSR-16" value="&lt;strong data-end=&quot;65&quot; data-start=&quot;43&quot;&gt;&lt;font style=&quot;font-size: 16px;&quot;&gt;Опрос ввода-вывода&lt;/font&gt;&lt;/strong&gt;" style="rounded=1;whiteSpace=wrap;html=1;strokeWidth=3;" vertex="1" parent="1">
          <mxGeometry x="920" y="1260" width="120" height="60" as="geometry" />
        </mxCell>
        <mxCell id="s9wY2HrR1crQIRi6QdSR-17" value="" style="shape=flexArrow;endArrow=classic;html=1;rounded=0;strokeWidth=2;" edge="1" parent="1">
          <mxGeometry width="50" height="50" relative="1" as="geometry">
            <mxPoint x="390" y="1119" as="sourcePoint" />
            <mxPoint x="450" y="1118.5" as="targetPoint" />
          </mxGeometry>
        </mxCell>
        <mxCell id="s9wY2HrR1crQIRi6QdSR-19" value="" style="shape=flexArrow;endArrow=classic;startArrow=classic;html=1;rounded=0;strokeWidth=2;" edge="1" parent="1">
          <mxGeometry width="100" height="100" relative="1" as="geometry">
            <mxPoint x="570" y="1117.5" as="sourcePoint" />
            <mxPoint x="640" y="1118" as="targetPoint" />
          </mxGeometry>
        </mxCell>
        <mxCell id="s9wY2HrR1crQIRi6QdSR-20" value="" style="shape=flexArrow;endArrow=classic;startArrow=classic;html=1;rounded=0;strokeWidth=2;" edge="1" parent="1">
          <mxGeometry width="100" height="100" relative="1" as="geometry">
            <mxPoint x="760" y="1080" as="sourcePoint" />
            <mxPoint x="810" y="1040" as="targetPoint" />
          </mxGeometry>
        </mxCell>
        <mxCell id="s9wY2HrR1crQIRi6QdSR-21" value="" style="shape=flexArrow;endArrow=classic;startArrow=classic;html=1;rounded=0;strokeWidth=2;" edge="1" parent="1">
          <mxGeometry width="100" height="100" relative="1" as="geometry">
            <mxPoint x="759" y="1158" as="sourcePoint" />
            <mxPoint x="910" y="1260" as="targetPoint" />
          </mxGeometry>
        </mxCell>
        <mxCell id="s9wY2HrR1crQIRi6QdSR-22" value="" style="shape=flexArrow;endArrow=classic;startArrow=classic;html=1;rounded=0;strokeWidth=2;" edge="1" parent="1">
          <mxGeometry width="100" height="100" relative="1" as="geometry">
            <mxPoint x="924" y="1027.5" as="sourcePoint" />
            <mxPoint x="994" y="1028" as="targetPoint" />
          </mxGeometry>
        </mxCell>
        <mxCell id="s9wY2HrR1crQIRi6QdSR-23" value="Запрос" style="text;html=1;align=center;verticalAlign=middle;whiteSpace=wrap;rounded=0;fontSize=16;fontStyle=1" vertex="1" parent="1">
          <mxGeometry x="299" y="1170" width="60" height="30" as="geometry" />
        </mxCell>
        <mxCell id="s9wY2HrR1crQIRi6QdSR-24" value="Очередь событий" style="text;html=1;align=center;verticalAlign=middle;whiteSpace=wrap;rounded=0;fontSize=16;fontStyle=1" vertex="1" parent="1">
          <mxGeometry x="479" y="1175" width="60" height="30" as="geometry" />
        </mxCell>
        <mxCell id="s9wY2HrR1crQIRi6QdSR-25" value="Цикл событий" style="text;html=1;align=center;verticalAlign=middle;whiteSpace=wrap;rounded=0;fontSize=16;fontStyle=1" vertex="1" parent="1">
          <mxGeometry x="676.51" y="1170" width="60" height="30" as="geometry" />
        </mxCell>
        <mxCell id="s9wY2HrR1crQIRi6QdSR-26" value="Пул потоков" style="text;html=1;align=center;verticalAlign=middle;whiteSpace=wrap;rounded=0;fontSize=16;fontStyle=1" vertex="1" parent="1">
          <mxGeometry x="839" y="1080" width="60" height="30" as="geometry" />
        </mxCell>
        <mxCell id="s9wY2HrR1crQIRi6QdSR-27" value="неблокирующие&amp;nbsp;" style="text;html=1;align=center;verticalAlign=middle;whiteSpace=wrap;rounded=0;fontSize=15;fontStyle=0;rotation=35;" vertex="1" parent="1">
          <mxGeometry x="820" y="1175" width="60" height="30" as="geometry" />
        </mxCell>
        <mxCell id="s9wY2HrR1crQIRi6QdSR-29" value="блокирующие&amp;nbsp;" style="text;html=1;align=center;verticalAlign=middle;whiteSpace=wrap;rounded=0;fontSize=15;fontStyle=0;rotation=323;" vertex="1" parent="1">
          <mxGeometry x="736.51" y="1020" width="60" height="30" as="geometry" />
        </mxCell>
      </root>
    </mxGraphModel>
  </diagram>
</mxfile>
